name Precision Landing05_filtered_grf.mot
datacolumns 37
datarows 10
range 0.002500 0.007000
endheader
time	1_ground_force_vx	1_ground_force_vy	1_ground_force_vz	1_ground_force_px	1_ground_force_py	1_ground_force_pz	1_ground_torque_x	1_ground_torque_y	1_ground_torque_z	2_ground_force_vx	2_ground_force_vy	2_ground_force_vz	2_ground_force_px	2_ground_force_py	2_ground_force_pz	2_ground_torque_x	2_ground_torque_y	2_ground_torque_z	3_ground_force_vx	3_ground_force_vy	3_ground_force_vz	3_ground_force_px	3_ground_force_py	3_ground_force_pz	3_ground_torque_x	3_ground_torque_y	3_ground_torque_z	4_ground_force_vx	4_ground_force_vy	4_ground_force_vz	4_ground_force_px	4_ground_force_py	4_ground_force_pz	4_ground_torque_x	4_ground_torque_y	4_ground_torque_z
            0.002500	            0.000000	            0.000000	           -0.000000	            0.085807	            0.000000	            0.311172	           -0.000000	           -0.000000	           -0.000000	           -0.000000	           -0.000000	           -0.000000	           -0.174735	            0.000000	            0.224768	           -0.000000	            0.000000	           -0.000000	          -27.337244	          299.736670	          107.284855	            0.352438	            1.255301	            1.892070	            1.021382	          -11.198848	           -4.008408	           16.226155	          330.602465	          108.765228	           -0.289541	            1.264207	            1.900842	            0.859946	           17.521105	            5.764285
            0.003000	            0.000000	            0.000000	           -0.000000	            0.085807	            0.000000	            0.311172	            0.000000	           -0.000000	           -0.000000	           -0.000000	           -0.000000	           -0.000000	           -0.174735	            0.000000	            0.224768	           -0.000000	            0.000000	           -0.000000	          -27.313238	          299.546461	          107.344353	            0.352438	            1.255301	            1.892070	            1.022412	          -11.212874	           -4.018204	           16.333664	          330.538882	          108.621987	           -0.289541	            1.264207	            1.900842	            0.865064	           17.506008	            5.752840
            0.003500	            0.000000	            0.000000	           -0.000000	            0.085807	            0.000000	            0.311172	            0.000000	           -0.000000	           -0.000000	           -0.000000	           -0.000000	           -0.000000	           -0.174735	            0.000000	            0.224768	           -0.000000	            0.000000	            0.000000	          -27.281999	          299.356954	          107.398714	            0.352432	            1.255301	            1.892070	            1.023110	          -11.226276	           -4.027592	           16.442249	          330.471891	          108.479928	           -0.289539	            1.264207	            1.900836	            0.870259	           17.491293	            5.741651
            0.004000	            0.000000	            0.000000	           -0.000000	            0.085807	            0.000000	            0.311172	            0.000000	           -0.000000	           -0.000000	           -0.000000	            0.000000	           -0.000000	           -0.174735	            0.000000	            0.224768	           -0.000000	            0.000000	            0.000000	          -27.243767	          299.168351	          107.447438	            0.352426	            1.255301	            1.892071	            1.023478	          -11.238984	           -4.036523	           16.551527	          330.401661	          108.339134	           -0.289538	            1.264206	            1.900831	            0.875513	           17.476990	            5.730728
            0.004500	            0.000000	            0.000000	           -0.000000	            0.085807	            0.000000	            0.311172	            0.000000	           -0.000000	           -0.000000	           -0.000000	            0.000000	           -0.000000	           -0.174735	            0.000000	            0.224768	           -0.000000	            0.000000	            0.000000	          -27.198819	          298.980846	          107.490065	            0.352420	            1.255302	            1.892071	            1.023518	          -11.250938	           -4.044955	           16.661108	          330.328362	          108.199660	           -0.289536	            1.264206	            1.900825	            0.880805	           17.463126	            5.720079
            0.005000	            0.000000	            0.000000	            0.000000	            0.085807	            0.000000	            0.311172	            0.000000	           -0.000000	           -0.000000	           -0.000000	            0.000000	           -0.000000	           -0.174735	            0.000000	            0.224768	           -0.000000	            0.000000	            0.000000	          -27.147473	          298.794621	          107.526185	            0.352414	            1.255302	            1.892072	            1.023235	          -11.262082	           -4.052846	           16.770601	          330.252166	          108.061528	           -0.289535	            1.264205	            1.900820	            0.886118	           17.449723	            5.709709
            0.005500	            0.000000	            0.000000	            0.000000	            0.085807	            0.000000	            0.311172	            0.000000	           -0.000000	           -0.000000	           -0.000000	            0.000000	           -0.000000	           -0.174735	            0.000000	            0.224768	            0.000000	            0.000000	            0.000000	          -27.089939	          298.609990	          107.555081	            0.352408	            1.255302	            1.892073	            1.022631	          -11.272375	           -4.060149	           16.877395	          330.172148	          107.928424	           -0.289533	            1.264204	            1.900814	            0.891313	           17.436739	            5.699814
            0.006000	            0.000000	            0.000000	            0.000000	            0.085807	            0.000000	            0.311172	            0.000000	            0.000000	           -0.000000	           -0.000000	            0.000000	           -0.000000	           -0.174735	            0.000000	            0.224768	            0.000000	            0.000000	            0.000000	          -27.026731	          298.426978	          107.576803	            0.352403	            1.255303	            1.892074	            1.021722	          -11.281771	           -4.066847	           16.983330	          330.089570	          107.796624	           -0.289532	            1.264204	            1.900809	            0.896489	           17.424247	            5.690198
            0.006500	            0.000000	            0.000000	            0.000000	            0.085807	            0.000000	            0.311172	            0.000000	            0.000000	           -0.000000	           -0.000000	            0.000000	           -0.000000	           -0.174735	            0.000000	            0.224768	            0.000000	            0.000000	            0.000000	          -26.958257	          298.245743	          107.591096	            0.352397	            1.255303	            1.892075	            1.020518	          -11.290240	           -4.072914	           17.088031	          330.004594	          107.666064	           -0.289530	            1.264203	            1.900804	            0.901627	           17.412254	            5.680857
            0.007000	            0.000000	            0.000000	            0.000000	            0.085807	            0.000000	            0.311172	            0.000000	            0.000000	           -0.000000	           -0.000000	            0.000000	            0.000000	           -0.174735	            0.000000	            0.224768	            0.000000	           -0.000000	            0.000000	          -26.884943	          298.066436	          107.597764	            0.352391	            1.255304	            1.892076	            1.019033	          -11.297759	           -4.078331	           17.191135	          329.917372	          107.536656	           -0.289528	            1.264202	            1.900799	            0.906709	           17.400765	            5.671784
